<svg xmlns="http://www.w3.org/2000/svg" id="Layer_1" version="1.1" viewBox="52.92 68.51 182.04 133.23">
  <!-- Generator: Adobe Illustrator 29.6.1, SVG Export Plug-In . SVG Version: 2.1.1 Build 9)  -->
  <defs>
    <style>
      .st0 {
        fill: #baa360;
      }

      .st1 {
        fill: #181c21;
      }
    </style>
  </defs>
  <g>
    <path class="st1" d="M82.79,170.18l8.07,19.02h-2.06l-2-4.69c-.05.09-.12.17-.19.24-.9.99-2.3,1.49-4.2,1.49-.2,0-.49,0-.87-.03-.99-.02-1.71.02-2.14.11-.9.2-1.57.7-2,1.49-.05.11-.11.21-.16.3l-.46,1.08h-2.06l8.07-19.02ZM82.79,175.05l-4.01,9.46c.07-.02.14-.04.22-.05.63-.13,1.66-.16,3.09-.11h.33c1.34,0,2.27-.29,2.79-.87.49-.58.51-1.44.08-2.57l-2.49-5.85Z"/>
    <path class="st1" d="M100.87,170.23c2.55.02,4.72.9,6.53,2.66.05.05.1.1.14.14l-1.36,1.33c-1.52-1.54-3.35-2.28-5.5-2.22-1.99.04-3.69.77-5.12,2.19-1.54,1.54-2.28,3.4-2.22,5.58.05,2,.78,3.73,2.17,5.17,1.54,1.54,3.38,2.28,5.53,2.22,1.72-.04,3.23-.6,4.55-1.68v-3.2c-.65.04-1.1.11-1.35.22-.31.13-.51.34-.62.65-.02.07-.04.14-.05.22l-1.82-.51c.29-1.03.88-1.73,1.76-2.11.49-.2,1.2-.32,2.14-.35.65-.04,1.07-.1,1.25-.19.14-.07.22-.2.22-.38.02-.09.03-.2.03-.33h1.9c0,1.01-.35,1.76-1.06,2.25-.05.05-.11.09-.16.11-.11.05-.22.11-.33.16v4.28l-.03.03c-1.79,1.79-3.96,2.7-6.5,2.74-2.51.04-4.68-.81-6.5-2.55-.11-.09-.21-.17-.3-.24-1.77-1.82-2.67-4.01-2.71-6.56-.04-2.55.81-4.75,2.55-6.61.07-.09.14-.17.22-.24,1.81-1.81,3.97-2.73,6.5-2.76h.16Z"/>
    <path class="st1" d="M111.13,170.23h1.9v18.97h-1.9v-18.97Z"/>
    <path class="st1" d="M117.85,170.23l1.57,3.01,6.21,11.87,6.21-11.84,1.57-3.01,2.11,18.94h-1.92l-1.38-12.57-6.58,12.57-1.06-2.03-5.53-10.54-1.41,12.57h-1.9l2.11-18.97Z"/>
    <path class="st1" d="M147.06,170.23c2.55,0,4.73.88,6.56,2.66,1.81,1.77,2.76,3.91,2.87,6.42v.41c0,2.55-.88,4.74-2.66,6.58-1.73,1.82-3.85,2.79-6.34,2.9h-.43c-2.53,0-4.71-.88-6.53-2.66-1.81-1.77-2.76-3.91-2.87-6.42v-.41c0-2.55.88-4.74,2.66-6.58,1.73-1.83,3.85-2.79,6.34-2.9h.41ZM147.06,172.13c-2.13,0-3.94.78-5.42,2.33-1.39,1.48-2.09,3.23-2.09,5.26,0,2.17.78,3.99,2.33,5.47,1.46,1.41,3.19,2.11,5.18,2.11,2.15,0,3.96-.78,5.45-2.33,1.39-1.48,2.09-3.23,2.09-5.26,0-2.17-.78-3.99-2.33-5.47-1.46-1.41-3.2-2.11-5.2-2.11Z"/>
    <path class="st1" d="M165.89,170.2c1.81,0,3.32.67,4.53,2,.69.78,1.16,1.65,1.41,2.63.45,1.77.15,3.41-.89,4.93-.31.43-.65.81-1.03,1.14.49.31.89.69,1.22,1.14.88,1.19,1.13,2.5.73,3.93-.07.25-.15.49-.24.7-.52,1.17-1.37,1.95-2.55,2.33-.11.04-.21.06-.3.08-.34.09-.64.13-.89.11h-8.43v-18.97h6.45v-.03ZM166.06,172.13h-4.71v10.59c.31-.2.68-.39,1.11-.57.4-.16,1.04-.4,1.92-.71,1.54-.56,2.7-1.04,3.5-1.44,1.19-.63,1.91-1.6,2.17-2.9.13-.61.11-1.22-.05-1.82-.31-1.28-1.06-2.2-2.25-2.76-.54-.25-1.1-.39-1.68-.41ZM167.85,182.23c-.13.02-.25.04-.38.05-.2.09-1.37.53-3.52,1.33-.29.11-.53.21-.73.3-.71.29-1.19.58-1.46.87-.27.31-.41.67-.41,1.08v1.44h6.53c.85,0,1.49-.41,1.92-1.22.04-.07.06-.14.08-.19.4-.87.35-1.72-.14-2.55-.05-.07-.1-.14-.13-.19-.47-.61-1.06-.92-1.76-.92Z"/>
    <path class="st1" d="M181.72,170.18l8.07,19.02h-2.06l-2-4.69c-.05.09-.12.17-.19.24-.9.99-2.3,1.49-4.2,1.49-.2,0-.49,0-.87-.03-.99-.02-1.71.02-2.14.11-.9.2-1.57.7-2,1.49-.05.11-.11.21-.16.3l-.46,1.08h-2.06l8.07-19.02ZM181.72,175.05l-4.01,9.46c.07-.02.14-.04.22-.05.63-.13,1.66-.16,3.09-.11h.33c1.34,0,2.27-.29,2.79-.87.49-.58.51-1.44.08-2.57l-2.49-5.85Z"/>
    <path class="st1" d="M191.96,170.23h3.33c2.53,0,4.71.88,6.53,2.66,1.81,1.77,2.76,3.91,2.87,6.42v.41c0,2.55-.89,4.74-2.66,6.58-1.73,1.82-3.85,2.79-6.34,2.9h-3.74v-18.97ZM193.86,172.13v15.17h1.44c2.13,0,3.94-.78,5.42-2.33,1.39-1.48,2.09-3.23,2.09-5.26,0-2.17-.77-3.99-2.3-5.47-1.46-1.39-3.2-2.09-5.2-2.11h-1.44Z"/>
    <path class="st1" d="M207.95,170.23h5.96c1.97.02,3.62.74,4.96,2.17.79.87,1.34,1.85,1.62,2.95.49,1.93.17,3.72-.95,5.36-.51.78-1.14,1.41-1.9,1.9-.33.22-.75.45-1.27.7l-.54.22,4.9,5.66h-2.52l-4.25-4.93c-1.17.42-1.91.69-2.2.81-.7.31-1.2.61-1.49.92-.29.31-.43.67-.43,1.08v2.11h-1.9v-18.97ZM209.84,172.13v11.81c.33-.22.71-.42,1.17-.6.43-.18,1.11-.44,2.03-.79,1.41-.51,2.45-.92,3.12-1.25,1.34-.71,2.18-1.78,2.52-3.22.16-.76.15-1.51-.03-2.25-.36-1.43-1.2-2.48-2.52-3.17-.72-.36-1.49-.54-2.3-.54h-3.98Z"/>
  </g>
  <g>
    <path class="st1" d="M76.3,196.31v4.79h1.91v.57h-2.62v-5.36h.71Z"/>
    <path class="st1" d="M81.93,196.31h.71v3.39c0,.98.54,1.41,1.35,1.41s1.34-.42,1.34-1.41v-3.39h.71v3.38c0,1.39-.93,2.03-2.06,2.03s-2.05-.64-2.05-2.03v-3.38Z"/>
    <path class="st1" d="M92.01,199.58l-1.25,2.09h-.79l1.67-2.68-1.67-2.68h.8l1.32,2.1,1.25-2.1h.8l-1.68,2.68,1.67,2.68h-.81l-1.31-2.09Z"/>
    <path class="st1" d="M98.04,196.31h.71v3.39c0,.98.54,1.41,1.35,1.41s1.34-.42,1.34-1.41v-3.39h.71v3.38c0,1.39-.93,2.03-2.06,2.03s-2.05-.64-2.05-2.03v-3.38Z"/>
    <path class="st1" d="M108.09,196.31c1.28,0,1.89.7,1.89,1.58,0,.68-.38,1.34-1.3,1.54l1.37,2.25h-.85l-1.3-2.19h-.86v2.19h-.71v-5.36h1.76ZM108.09,196.88h-1.05v2.03h1.05c.81,0,1.16-.43,1.16-1.03s-.34-1-1.16-1Z"/>
    <path class="st1" d="M113.61,196.31h.79l1.35,2.71,1.35-2.71h.79l-1.78,3.34v2.02h-.71v-2.02l-1.79-3.34Z"/>
    <path class="st1" d="M128.43,201.72c-1.1,0-1.87-.6-1.89-1.48h.76c.05.45.37.89,1.13.89.69,0,1.1-.38,1.1-.89,0-1.45-2.95-.52-2.95-2.51,0-.88.73-1.48,1.81-1.48s1.72.56,1.81,1.38h-.78c-.05-.36-.39-.77-1.06-.78-.59-.02-1.05.29-1.05.86,0,1.38,2.94.52,2.94,2.51,0,.76-.63,1.52-1.82,1.52Z"/>
    <path class="st1" d="M137.21,196.88h-2.22v1.79h1.99v.58h-1.99v1.85h2.22v.58h-2.94v-5.37h2.94v.58Z"/>
    <path class="st1" d="M143.04,196.31c1.28,0,1.89.7,1.89,1.58,0,.68-.38,1.34-1.3,1.54l1.37,2.25h-.85l-1.3-2.19h-.86v2.19h-.71v-5.36h1.76ZM143.04,196.88h-1.05v2.03h1.05c.81,0,1.16-.43,1.16-1.03s-.34-1-1.16-1Z"/>
    <path class="st1" d="M152.77,196.31h.75l-2.06,5.36h-.82l-2.06-5.36h.76l1.71,4.62,1.71-4.62Z"/>
    <path class="st1" d="M157.29,196.31h.71v5.36h-.71v-5.36Z"/>
    <path class="st1" d="M164.66,196.24c1.18,0,2.12.58,2.53,1.62h-.85c-.3-.65-.88-1.01-1.67-1.01-1.14,0-2,.82-2,2.13s.85,2.12,2,2.12c.8,0,1.38-.36,1.67-1h.85c-.41,1.03-1.35,1.61-2.53,1.61-1.53,0-2.72-1.12-2.72-2.73s1.2-2.75,2.72-2.75Z"/>
    <path class="st1" d="M174.16,196.88h-2.22v1.79h1.99v.58h-1.99v1.85h2.22v.58h-2.94v-5.37h2.94v.58Z"/>
    <path class="st1" d="M185.03,201.72c-1.1,0-1.87-.6-1.89-1.48h.76c.05.45.37.89,1.13.89.69,0,1.1-.38,1.1-.89,0-1.45-2.95-.52-2.95-2.51,0-.88.73-1.48,1.81-1.48s1.72.56,1.81,1.38h-.78c-.05-.36-.39-.77-1.06-.78-.59-.02-1.05.29-1.05.86,0,1.38,2.94.52,2.94,2.51,0,.76-.63,1.52-1.82,1.52Z"/>
    <path class="st1" d="M190.42,196.31h.79l1.35,2.71,1.35-2.71h.79l-1.78,3.34v2.02h-.71v-2.02l-1.79-3.34Z"/>
    <path class="st1" d="M202.72,196.3v5.37h-.71l-2.86-4.27v4.27h-.71v-5.37h.71l2.86,4.26v-4.26h.71Z"/>
    <path class="st1" d="M211.51,199c0,1.66-1.1,2.67-2.9,2.67h-1.7v-5.36h1.7c1.79,0,2.9,1.03,2.9,2.69ZM208.62,201.09c1.42,0,2.17-.78,2.17-2.09s-.74-2.12-2.17-2.12h-.99v4.21h.99Z"/>
    <path class="st1" d="M215.44,196.31h.71v5.36h-.71v-5.36Z"/>
    <path class="st1" d="M222.8,196.24c1.18,0,2.12.58,2.53,1.62h-.85c-.3-.65-.88-1.01-1.67-1.01-1.14,0-2,.82-2,2.13s.85,2.12,2,2.12c.8,0,1.38-.36,1.67-1h.85c-.41,1.03-1.35,1.61-2.53,1.61-1.53,0-2.72-1.12-2.72-2.73s1.2-2.75,2.72-2.75Z"/>
  </g>
  <rect class="st1" x="74.72" y="192.79" width="150.29" height=".45"/>
  <path class="st1" d="M168.01,101.78l-.5-19.66-17.75-9.85.95,36.82,24.41-4.9c1.07.28,15.23,13.78,16.12,15.13,1.23,1.85,1.17,3.4,1.1,5.56l-18.14-16.35-24.76,25.85-.51,2.86,25.82-24.97c8.81,7.97,17.37,16.25,24.8,25.54l-25.88-22.43-22.82,24.6-1.55,10.65-8.18.28-1.38-51.12-20.17-10.51,1.57,61.02-26.48,3.03-.46-54.35,23.22-14.54c1.41-.76,9.31,4.45,9.62,4.02.11-2.73-.9-5.55,1.1-7.79,1.5-1.68,12.23-8.06,14.91-9.59,1.26-.72,3.81-2.52,5.03-2.57l22.17,10.72c.57.88,1.14,19.04.84,20.91-.3,1.86-1.41,1.67-3.08,1.64ZM138.3,88.18c4.18-1.37,2.94-4.67,2.9-8.19-4.18,1.37-2.94,4.67-2.9,8.19ZM132.76,91.44c4.09-.82,2.95-5.02,2.9-8.19-4.18,1.37-2.93,4.67-2.9,8.19ZM141.45,89.35c-7.6,1.79-.07,8.24.16,5.92l-.16-5.92ZM106.85,104.59c4.35-1.19,3.8-5.15,3.51-8.83-4.36,2-3.84,4.55-3.51,8.83ZM104.84,99.66c-4.48.77-3.62,5.3-3.52,8.83,4.36-1.19,3.8-5.14,3.52-8.83ZM110.65,111.86c.63-1.14-.31-5.13-.04-6.74-4.35,2-3.85,4.52-3.51,8.83.29.32,3.46-1.91,3.56-2.09ZM101.57,117.85c3.58-.7,4.92-6.21,2.58-8.79-3.39,2.39-2.82,5.03-2.58,8.79ZM107.33,123.32c4.35-1.19,3.8-5.15,3.51-8.83-4.36,2-3.84,4.55-3.51,8.83ZM105.34,119c-4.03,0-3.83,4.54-3.55,7.58,4.35-.16,3.8-4.27,3.55-7.58ZM107.58,132.68c4.42-1.67,3.79-4.77,3.51-8.83-3.86,1.62-4.66,5.03-3.51,8.83ZM104.94,135.06c1.22-1.81.74-5.33,0-7.3-3.75,2.04-3.12,5.07-2.89,8.81.32.35,2.63-1.14,2.89-1.51Z"/>
  <path class="st0" d="M147.95,182.01l.59.16.11.87c-.11.12-1.5-.25-1.36.57l1.38.12v.75s-.25.27-.25.27l-1.01.06c-.51.92,1.11.56,1.3.84l.06,1.01-2.58-.44-.3-6.56c-.19-.55-1.75-.76-2.08-2.23-.56-2.5,1.11-4.44,3.67-4.13,2.29.27,3.42,3.89,1.59,5.44-.32.27-1.14.53-1.23.85l.09,2.44ZM146.73,174.36c-1.88.37-.51,3.18.89,1.84.85-.81-.03-2.01-.89-1.84Z"/>
  <path class="st1" d="M182.52,131.39l-.52,6.2-5.56.2c.16-1.46-.69-5.16.43-5.99l5.65-.41Z"/>
  <rect class="st1" x="168.86" y="131.66" width="5.63" height="6.25" transform="translate(-3.4 4.45) rotate(-1.47)"/>
  <rect class="st1" x="176.56" y="139.58" width="5.63" height="6.25" transform="translate(-3.6 4.65) rotate(-1.47)"/>
  <path class="st1" d="M174.61,139.7l-.13,5.67c-.74,1.12-3.98.53-5.34.72l-.16-6.25,5.63-.14Z"/>
  <path class="st1" d="M135.76,135.7c-3.87-.54-3.31-4.37-3.3-7.41,3.62,1.03,3.36,4.2,3.3,7.41Z"/>
  <path class="st1" d="M130.05,132.1c-3.33-.39-3.42-4.26-3.29-6.78,4.18.16,3.17,3.72,3.29,6.78Z"/>
  <path class="st1" d="M129.81,122.74c-3.89.05-3.21-4.03-3.29-6.78,3.57.46,3.41,3.9,3.29,6.78Z"/>
  <path class="st1" d="M129.34,104.64c-3.89.05-3.21-4.03-3.29-6.78,3.57.46,3.41,3.9,3.29,6.78Z"/>
  <path class="st1" d="M129.58,114.01c-3.24-.81-4.47-4.19-2.35-6.81,3.2.65,2.13,4.38,2.35,6.81Z"/>
  <path class="st1" d="M135.06,108.24c-3.89.03-3.21-3.98-3.29-6.78,3.35.96,3.42,3.76,3.29,6.78Z"/>
  <path class="st1" d="M134.58,120.29c1.13,1.16.85,3.87.93,5.43-3.83.34-3.27-3.36-3.28-6.16.27-.31,2.03.4,2.35.73Z"/>
  <path class="st1" d="M134.36,111.55c1.13,1.16.85,3.87.93,5.43-3.86-.14-3.3-3.14-3.28-6.16.27-.31,2.03.4,2.35.73Z"/>
  <path class="st0" d="M81.56,156.75l-1.79,1.48-1.79,1.48-1.79,1.48-1.79,1.48-1.79,1.48-1.79,1.48-1.79,1.48-1.79,1.48-1.79,1.48-1.79,1.48-1.79,1.48-1.79,1.48-1.79,1.48-1.79,1.48-1.79,1.48-1.79,1.48c3.39-1.71,6.86-3.3,10.4-4.78,3.54-1.48,7.15-2.85,10.81-4.11,3.67-1.26,7.39-2.42,11.16-3.48,3.77-1.06,7.6-2.02,11.46-2.88,3.86-.87,7.76-1.64,11.69-2.33,3.93-.69,7.88-1.29,11.86-1.81,3.97-.52,7.97-.96,11.97-1.33,4-.37,8.01-.66,12.02-.89,4.01-.23,8.01-.39,12.01-.49,3.99-.1,7.98-.14,11.94-.13,3.96.01,7.9.08,11.8.19,3.91.11,7.78.27,11.61.48,3.83.2,7.62.44,11.36.72,3.74.28,7.42.59,11.04.93,3.62.34,7.18.71,10.67,1.1,3.49.39,6.9.8,10.24,1.22,0,0-.31-.11-.9-.31-.59-.2-1.47-.5-2.62-.86-1.15-.37-2.56-.8-4.22-1.29-1.66-.49-3.57-1.03-5.7-1.61-2.13-.58-4.5-1.19-7.06-1.81-2.57-.63-5.34-1.27-8.3-1.9-2.96-.64-6.11-1.27-9.42-1.87-3.31-.61-6.79-1.19-10.42-1.73s-7.4-1.03-11.3-1.47c-3.9-.43-7.92-.8-12.05-1.09-4.13-.29-8.37-.49-12.69-.6-4.32-.1-8.73-.11-13.2,0-4.47.12-9.01.35-13.6.73-4.59.38-9.22.89-13.87,1.57-4.66.68-9.34,1.51-14.03,2.52-4.69,1.01-9.38,2.2-14.06,3.59Z"/>
</svg>